<svg xmlns="http://www.w3.org/2000/svg" id="Pen-3--Streamline-Cyber" width="24" height="24" fill="none" viewBox="0 0 24 24"><desc>Pen 3 Streamline Icon: https://streamlinehq.com</desc><path fill="#fff" stroke-width="1" d="m22.5 0.5 -15.3 12 -2.8 4.3 -2.9 0.7 -1 6 6 -1 0.7 -2.9 4.3 -2.8 12 -15.3 -1 -1Z"/><path fill="#bbd8ff" stroke-width="1" d="m7.2 19.6 4.3 -2.8 12 -15.3L23 1 5.8 18.2l1.4 1.4Z"/><path fill="#bbd8ff" stroke-width="1" d="m6.5 22.5 0.7 -2.9 -1.4 -1.4 -5.3 5.3 6 -1Z"/><path stroke="#092f63" stroke-linecap="round" stroke-linejoin="round" stroke-miterlimit="10" stroke-width="1" d="m7.19999 19.6 -2.8 -2.8 2.8 -4.3L22.5 0.5l1 1 -12 15.3 -4.30001 2.8Z"/><path stroke="#092f63" stroke-linecap="round" stroke-linejoin="round" stroke-miterlimit="10" stroke-width="1" d="m5.5 15.1 3.4 3.4"/><path stroke="#092f63" stroke-linecap="round" stroke-linejoin="round" stroke-miterlimit="10" stroke-width="1" d="M5.8 18.2 4 20"/><path stroke="#092f63" stroke-linecap="round" stroke-linejoin="round" stroke-miterlimit="10" stroke-width="1" d="m6.5 22.5 -6 1 1 -6 2.9 -0.7 2.8 2.8 -0.7 2.9Z"/><path stroke="#bbd8ff" stroke-linecap="round" stroke-linejoin="round" stroke-miterlimit="10" stroke-width="1" d="M11 23.5h12.5"/></svg>